<svg width="151" height="33" viewBox="0 0 151 33" fill="none" xmlns="http://www.w3.org/2000/svg">
<path d="M140.533 25.4592H136.955V10.9693H140.269L140.563 12.8465C141.472 11.3799 143.232 10.5293 145.197 10.5293C148.834 10.5293 150.711 12.7878 150.711 16.5423V25.4592H147.133V17.3929C147.133 14.9584 145.93 13.7851 144.082 13.7851C141.883 13.7851 140.533 15.3104 140.533 17.6569V25.4592Z" fill="white"/>
<path d="M125.197 25.8405C122.117 25.8405 120.24 24.0513 120.24 21.3234C120.24 18.6542 122.176 16.9823 125.607 16.7183L129.948 16.3957V16.073C129.948 14.1078 128.775 13.3158 126.957 13.3158C124.845 13.3158 123.671 14.1958 123.671 15.721H120.621C120.621 12.5825 123.202 10.5293 127.133 10.5293C131.034 10.5293 133.439 12.6412 133.439 16.6596V25.4592H130.3L130.036 23.318C129.42 24.8139 127.455 25.8405 125.197 25.8405ZM126.37 23.142C128.57 23.142 129.978 21.822 129.978 19.5928V18.8302L126.957 19.0649C124.727 19.2702 123.877 20.0035 123.877 21.1767C123.877 22.4967 124.757 23.142 126.37 23.142Z" fill="white"/>
<path d="M117.131 25.4576H113.582V3.63477H117.131V25.4576Z" fill="white"/>
<path d="M95.3622 32.1762V10.9693H98.6767L98.9113 13.1692C99.7913 11.4972 101.698 10.5293 103.898 10.5293C107.975 10.5293 110.673 13.4918 110.673 18.0382C110.673 22.5553 108.21 25.8405 103.898 25.8405C101.727 25.8405 99.8499 24.9899 98.9406 23.5233V32.1762H95.3622ZM98.97 18.2142C98.97 20.8248 100.583 22.614 103.047 22.614C105.57 22.614 107.066 20.7954 107.066 18.2142C107.066 15.633 105.57 13.7851 103.047 13.7851C100.583 13.7851 98.97 15.6037 98.97 18.2142Z" fill="white"/>
<path d="M83.6049 25.8405C80.5251 25.8405 78.6478 24.0513 78.6478 21.3234C78.6478 18.6542 80.5837 16.9823 84.0156 16.7183L88.3567 16.3957V16.073C88.3567 14.1078 87.1834 13.3158 85.3648 13.3158C83.2529 13.3158 82.0797 14.1958 82.0797 15.721H79.0291C79.0291 12.5825 81.6103 10.5293 85.5408 10.5293C89.442 10.5293 91.8472 12.6412 91.8472 16.6596V25.4592H88.7087L88.4447 23.318C87.8287 24.8139 85.8635 25.8405 83.6049 25.8405ZM84.7782 23.142C86.9781 23.142 88.386 21.822 88.386 19.5928V18.8302L85.3648 19.0649C83.1356 19.2702 82.285 20.0035 82.285 21.1767C82.285 22.4967 83.1649 23.142 84.7782 23.142Z" fill="white"/>
<path d="M65.5992 25.4592H62.0208V10.9693H65.3353L65.6286 12.8465C66.5379 11.3799 68.2978 10.5293 70.263 10.5293C73.9002 10.5293 75.7774 12.7878 75.7774 16.5423V25.4592H72.1989V17.3929C72.1989 14.9584 70.9963 13.7851 69.1484 13.7851C66.9485 13.7851 65.5992 15.3104 65.5992 17.6569V25.4592Z" fill="white"/>
<path d="M45.2338 32.1771V29.1853H47.375C48.7829 29.1853 49.6629 28.8626 50.2788 27.1614L50.6895 26.0761L44.8524 10.9702H48.6363L52.3614 21.5297L56.2919 10.9702H59.9877L52.8894 28.6866C51.8041 31.3852 50.2788 32.4998 47.903 32.4998C46.9057 32.4998 46.0257 32.3824 45.2338 32.1771Z" fill="white"/>
<path d="M32.0895 21.0594H35.492C35.5213 22.3207 36.4599 23.1126 38.1025 23.1126C39.7744 23.1126 40.6837 22.438 40.6837 21.3821C40.6837 20.6488 40.3024 20.1208 39.0118 19.8275L36.4013 19.2115C33.7907 18.6249 32.5295 17.3929 32.5295 15.0757C32.5295 12.2305 34.9347 10.5293 38.2785 10.5293C41.5343 10.5293 43.7342 12.4065 43.7636 15.2224H40.3611C40.3317 13.9904 39.5104 13.1985 38.1318 13.1985C36.7239 13.1985 35.9026 13.8438 35.9026 14.9291C35.9026 15.7504 36.5479 16.2783 37.7799 16.5716L40.3904 17.1876C42.8249 17.7449 44.0569 18.8595 44.0569 21.0887C44.0569 24.0219 41.5637 25.8405 37.9852 25.8405C34.3774 25.8405 32.0895 23.9046 32.0895 21.0594Z" fill="white"/>
<path d="M16.4871 32.1708C16.5338 30.983 15.7888 30.0543 14.7054 29.6512C13.7515 29.2949 12.6393 29.5684 11.6423 29.4496C10.6669 30.569 9.45389 31.4761 8.00694 31.8792C6.84075 32.2032 5.66736 32.1852 4.46517 32.1708C4.44717 32.088 4.47596 32.1132 4.51196 32.0916C4.88269 31.854 5.4154 31.6489 5.82213 31.4221C7.6866 30.3747 9.25233 28.9853 10.5121 27.2576L12.4414 27.2432C16.1703 27.1676 20.018 24.4285 19.7661 20.3829C19.5249 16.5063 15.1589 15.6569 12.3262 14.2531C11.4947 13.8392 10.5985 13.3137 10.1486 12.4715C9.21993 10.733 10.4185 8.79652 12.3298 8.66694C12.9921 8.62015 14.0107 8.62375 14.673 8.66694C15.4468 8.71734 16.3827 9.05567 16.6598 9.84753C17.2933 11.6508 14.6586 12.2195 14.5038 10.3658C13.7767 10.3262 12.3802 10.3047 12.5314 11.3845C12.6825 12.4643 13.3088 12.2879 13.7155 12.5039C14.7558 13.0582 15.9436 13.4469 17.0162 13.9544C17.4841 14.1776 17.9448 14.4223 18.3947 14.6815C18.5459 13.7744 18.4955 12.853 18.5027 11.9352C19.9424 11.0281 20.0792 9.14206 18.9706 7.89668C17.3653 6.08261 14.3526 6.06461 12.1102 6.18699C8.68003 6.37415 5.79693 9.14926 6.82995 12.7306C7.83778 16.2292 12.1174 16.5747 14.8313 18.0829C17.8764 19.7782 16.9694 23.7555 13.8055 24.6517C12.4702 25.0296 11.0556 24.7885 9.68425 24.8857C7.57862 28.4418 3.95406 30.8534 0.00194953 31.9224C-0.023246 31.8972 0.203514 31.5841 0.235908 31.5265C1.48849 29.2625 1.45969 26.7429 1.72965 24.2378C2.07519 21.0199 2.65108 17.4566 5.58097 15.5633C4.80351 14.7211 4.33559 13.5981 4.18442 12.4643C4.01525 11.2117 4.15202 9.90872 4.64873 8.74613C2.89584 8.58776 1.70085 6.91766 1.4093 5.29075C3.01462 5.81265 4.69553 6.05741 6.37643 6.19059L5.15265 5.63269C4.15202 5.07479 3.42495 4.26853 3.09381 3.15633C2.83465 2.28888 2.81306 1.39984 2.88864 0.5C4.33199 1.83536 6.11368 2.95836 8.02854 3.47667C11.5163 4.4197 15.1193 3.20312 18.4991 4.70405C20.5867 5.63269 22.7176 7.75991 22.1273 10.2543C24.4489 11.0821 25.7338 13.7312 24.7188 16.0456C24.2905 17.0247 23.4266 17.8813 22.3972 18.2052C22.7176 17.4458 22.8183 15.8549 21.8681 15.5129C21.8213 15.4949 21.6126 15.4337 21.5874 15.4337H19.8777C20.0756 15.8729 20.432 16.1824 20.7199 16.5531C23.6714 20.3469 21.7709 25.4867 18.024 27.8875C17.7108 28.0891 17.3689 28.2547 17.0702 28.4634C17.1997 28.5786 17.2933 28.5138 17.4445 28.539C18.985 28.8054 20.2448 29.9176 20.45 31.5085C20.4752 31.7172 20.4788 31.9584 20.4896 32.1708H16.4943H16.4871ZM8.37048 20.2929H10.7641C10.7281 21.1351 10.5733 21.963 10.3681 22.7764C11.0988 22.7692 11.8511 22.8016 12.5781 22.7008C13.3052 22.6001 14.3094 21.9846 14.0611 20.9048C13.9207 20.3001 13.5392 20.0985 13.0209 19.8574C11.3364 19.0691 9.53668 18.5076 7.84857 17.7229C7.30147 17.5574 6.71477 17.8417 6.30084 18.1908C4.37878 19.8106 4.05844 24.1802 3.88927 26.5414C3.88927 26.581 3.87847 26.7033 3.90726 26.7033C6.30084 25.3644 8.01774 23.0248 8.31649 20.2605C8.33089 20.2425 8.35968 20.2965 8.37048 20.2965V20.2929Z" fill="white"/>
</svg>
